<svg width="50" height="50" viewBox="0 0 50 50" fill="none" xmlns="http://www.w3.org/2000/svg">
<path d="M6.25 14.5835V22.9168C6.25 23.4694 6.46949 23.9993 6.86019 24.39C7.25089 24.7807 7.7808 25.0002 8.33333 25.0002H14.5833M14.5833 14.5835V35.4168M35.4167 14.5835V22.9168C35.4167 23.4694 35.6362 23.9993 36.0269 24.39C36.4176 24.7807 36.9475 25.0002 37.5 25.0002H43.75M43.75 14.5835V35.4168M20.8333 16.6668V33.3335C20.8333 33.886 21.0528 34.4159 21.4435 34.8066C21.8342 35.1973 22.3641 35.4168 22.9167 35.4168H27.0833C27.6359 35.4168 28.1658 35.1973 28.5565 34.8066C28.9472 34.4159 29.1667 33.886 29.1667 33.3335V16.6668C29.1667 16.1143 28.9472 15.5844 28.5565 15.1937C28.1658 14.803 27.6359 14.5835 27.0833 14.5835H22.9167C22.3641 14.5835 21.8342 14.803 21.4435 15.1937C21.0528 15.5844 20.8333 16.1143 20.8333 16.6668Z" stroke="#1930FF" stroke-width="2" stroke-linecap="round" stroke-linejoin="round"/>
</svg>
