<svg width="61" height="52" viewBox="0 0 61 52" fill="none" xmlns="http://www.w3.org/2000/svg">
<g clip-path="url(#clip0_236_42)">
<g filter="url(#filter0_d_236_42)">
<path d="M39.5 6V2.25C39.5 1.91848 39.6317 1.60054 39.8661 1.36612C40.1005 1.1317 40.4185 1 40.75 1C41.0815 1 41.3995 1.1317 41.6339 1.36612C41.8683 1.60054 42 1.91848 42 2.25V6C42 6.33152 41.8683 6.64946 41.6339 6.88388C41.3995 7.1183 41.0815 7.25 40.75 7.25C40.4185 7.25 40.1005 7.1183 39.8661 6.88388C39.6317 6.64946 39.5 6.33152 39.5 6ZM40.75 9.75C38.7722 9.75 36.8388 10.3365 35.1943 11.4353C33.5498 12.5341 32.2681 14.0959 31.5112 15.9232C30.7543 17.7504 30.5563 19.7611 30.9421 21.7009C31.328 23.6407 32.2804 25.4225 33.6789 26.8211C35.0775 28.2196 36.8593 29.172 38.7991 29.5579C40.7389 29.9437 42.7496 29.7457 44.5768 28.9888C46.4041 28.2319 47.9659 26.9502 49.0647 25.3057C50.1635 23.6612 50.75 21.7278 50.75 19.75C50.7471 17.0987 49.6926 14.5569 47.8179 12.6821C45.9431 10.8074 43.4013 9.7529 40.75 9.75ZM29.8656 10.6344C30.1002 10.8689 30.4183 11.0007 30.75 11.0007C31.0817 11.0007 31.3998 10.8689 31.6344 10.6344C31.8689 10.3998 32.0007 10.0817 32.0007 9.75C32.0007 9.4183 31.8689 9.10018 31.6344 8.86563L29.1344 6.36563C28.8998 6.13107 28.5817 5.99931 28.25 5.99931C27.9183 5.99931 27.6002 6.13107 27.3656 6.36563C27.1311 6.60018 26.9993 6.9183 26.9993 7.25C26.9993 7.5817 27.1311 7.89982 27.3656 8.13437L29.8656 10.6344ZM29.8656 28.8656L27.3656 31.3656C27.1311 31.6002 26.9993 31.9183 26.9993 32.25C26.9993 32.5817 27.1311 32.8998 27.3656 33.1344C27.6002 33.3689 27.9183 33.5007 28.25 33.5007C28.5817 33.5007 28.8998 33.3689 29.1344 33.1344L31.6344 30.6344C31.7505 30.5182 31.8426 30.3804 31.9055 30.2286C31.9683 30.0769 32.0007 29.9142 32.0007 29.75C32.0007 29.5858 31.9683 29.4231 31.9055 29.2714C31.8426 29.1196 31.7505 28.9818 31.6344 28.8656C31.5182 28.7495 31.3804 28.6574 31.2286 28.5945C31.0769 28.5317 30.9142 28.4993 30.75 28.4993C30.5858 28.4993 30.4231 28.5317 30.2714 28.5945C30.1196 28.6574 29.9818 28.7495 29.8656 28.8656ZM50.75 11C50.9142 11.0001 51.0768 10.9679 51.2286 10.9052C51.3803 10.8424 51.5182 10.7504 51.6344 10.6344L54.1344 8.13437C54.3689 7.89982 54.5007 7.5817 54.5007 7.25C54.5007 6.9183 54.3689 6.60018 54.1344 6.36563C53.8998 6.13107 53.5817 5.99931 53.25 5.99931C52.9183 5.99931 52.6002 6.13107 52.3656 6.36563L49.8656 8.86563C49.6906 9.04044 49.5714 9.26326 49.5231 9.50587C49.4748 9.74847 49.4995 9.99996 49.5942 10.2285C49.6889 10.457 49.8493 10.6523 50.055 10.7897C50.2608 10.927 50.5026 11.0002 50.75 11ZM51.6344 28.8656C51.3998 28.6311 51.0817 28.4993 50.75 28.4993C50.4183 28.4993 50.1002 28.6311 49.8656 28.8656C49.6311 29.1002 49.4993 29.4183 49.4993 29.75C49.4993 30.0817 49.6311 30.3998 49.8656 30.6344L52.3656 33.1344C52.4818 33.2505 52.6196 33.3426 52.7714 33.4055C52.9231 33.4683 53.0858 33.5007 53.25 33.5007C53.4142 33.5007 53.5769 33.4683 53.7286 33.4055C53.8804 33.3426 54.0182 33.2505 54.1344 33.1344C54.2505 33.0182 54.3426 32.8804 54.4055 32.7286C54.4683 32.5769 54.5007 32.4142 54.5007 32.25C54.5007 32.0858 54.4683 31.9231 54.4055 31.7714C54.3426 31.6196 54.2505 31.4818 54.1344 31.3656L51.6344 28.8656ZM28.25 19.75C28.25 19.4185 28.1183 19.1005 27.8839 18.8661C27.6495 18.6317 27.3315 18.5 27 18.5H23.25C22.9185 18.5 22.6005 18.6317 22.3661 18.8661C22.1317 19.1005 22 19.4185 22 19.75C22 20.0815 22.1317 20.3995 22.3661 20.6339C22.6005 20.8683 22.9185 21 23.25 21H27C27.3315 21 27.6495 20.8683 27.8839 20.6339C28.1183 20.3995 28.25 20.0815 28.25 19.75ZM40.75 32.25C40.4185 32.25 40.1005 32.3817 39.8661 32.6161C39.6317 32.8505 39.5 33.1685 39.5 33.5V37.25C39.5 37.5815 39.6317 37.8995 39.8661 38.1339C40.1005 38.3683 40.4185 38.5 40.75 38.5C41.0815 38.5 41.3995 38.3683 41.6339 38.1339C41.8683 37.8995 42 37.5815 42 37.25V33.5C42 33.1685 41.8683 32.8505 41.6339 32.6161C41.3995 32.3817 41.0815 32.25 40.75 32.25ZM58.25 18.5H54.5C54.1685 18.5 53.8505 18.6317 53.6161 18.8661C53.3817 19.1005 53.25 19.4185 53.25 19.75C53.25 20.0815 53.3817 20.3995 53.6161 20.6339C53.8505 20.8683 54.1685 21 54.5 21H58.25C58.5815 21 58.8995 20.8683 59.1339 20.6339C59.3683 20.3995 59.5 20.0815 59.5 19.75C59.5 19.4185 59.3683 19.1005 59.1339 18.8661C58.8995 18.6317 58.5815 18.5 58.25 18.5Z" fill="#FFD233"/>
</g>
</g>
<g filter="url(#filter1_d_236_42)">
<path d="M15 43.6668C11.9667 43.6668 9.37533 42.5794 7.226 40.4044C5.07667 38.2295 4.00133 35.6067 4 32.5359C4 29.7363 4.91667 27.2908 6.75 25.1996C8.58333 23.1083 10.85 21.8771 13.55 21.5061C14.6167 19.5835 16.0753 18.0737 17.926 16.9768C19.7767 15.8799 21.8013 15.3321 24 15.3335C27 15.3335 29.6087 16.3036 31.826 18.2437C34.0433 20.1839 35.3847 22.6037 35.85 25.5031C38.15 25.7055 40.0833 26.6668 41.65 28.3871C43.2167 30.1073 44 32.1648 44 34.5597C44 37.0894 43.1253 39.2401 41.376 41.0116C39.6267 42.7831 37.5013 43.6682 35 43.6668H15Z" fill="#BBBBBB"/>
</g>
<path d="M41.9688 36.9688C41.9688 37.7976 41.6395 38.5924 41.0535 39.1785C40.4674 39.7645 39.6726 40.0938 38.8438 40.0938C37.5059 40.0938 36.2119 39.2217 35.7676 38.0215C35.7 37.8283 35.7109 37.6162 35.798 37.431C35.8851 37.2457 36.0415 37.1021 36.2335 37.0309C36.4254 36.9598 36.6376 36.9668 36.8244 37.0505C37.0113 37.1342 37.1578 37.2879 37.2324 37.4785C37.4512 38.0693 38.1602 38.5312 38.8438 38.5312C39.2582 38.5312 39.6556 38.3666 39.9486 38.0736C40.2416 37.7806 40.4062 37.3832 40.4062 36.9688C40.4062 36.5543 40.2416 36.1569 39.9486 35.8639C39.6556 35.5709 39.2582 35.4062 38.8438 35.4062H27.9062C27.699 35.4062 27.5003 35.3239 27.3538 35.1774C27.2073 35.0309 27.125 34.8322 27.125 34.625C27.125 34.4178 27.2073 34.2191 27.3538 34.0726C27.5003 33.9261 27.699 33.8438 27.9062 33.8438H38.8438C39.6726 33.8438 40.4674 34.173 41.0535 34.759C41.6395 35.3451 41.9688 36.1399 41.9688 36.9688ZM35.7188 29.1562C36.5476 29.1562 37.3424 28.827 37.9285 28.241C38.5145 27.6549 38.8438 26.8601 38.8438 26.0312C38.8438 25.2024 38.5145 24.4076 37.9285 23.8215C37.3424 23.2355 36.5476 22.9062 35.7188 22.9062C34.3809 22.9062 33.0869 23.7783 32.6426 24.9785C32.575 25.1717 32.5859 25.3838 32.673 25.569C32.7601 25.7543 32.9165 25.8979 33.1085 25.9691C33.3004 26.0402 33.5126 26.0332 33.6994 25.9495C33.8863 25.8658 34.0328 25.7121 34.1074 25.5215C34.3262 24.9307 35.0352 24.4688 35.7188 24.4688C36.1332 24.4688 36.5306 24.6334 36.8236 24.9264C37.1166 25.2194 37.2812 25.6168 37.2812 26.0312C37.2812 26.4457 37.1166 26.8431 36.8236 27.1361C36.5306 27.4291 36.1332 27.5938 35.7188 27.5938H26.3438C26.1365 27.5938 25.9378 27.6761 25.7913 27.8226C25.6448 27.9691 25.5625 28.1678 25.5625 28.375C25.5625 28.5822 25.6448 28.7809 25.7913 28.9274C25.9378 29.0739 26.1365 29.1562 26.3438 29.1562H35.7188ZM44.3125 26.0312C42.9746 26.0312 41.6807 26.9033 41.2363 28.1035C41.1687 28.2967 41.1796 28.5088 41.2668 28.694C41.3539 28.8793 41.5103 29.0229 41.7022 29.0941C41.8942 29.1652 42.1064 29.1582 42.2932 29.0745C42.48 28.9908 42.6265 28.8371 42.7012 28.6465C42.9199 28.0557 43.6289 27.5938 44.3125 27.5938C44.7269 27.5938 45.1243 27.7584 45.4174 28.0514C45.7104 28.3444 45.875 28.7418 45.875 29.1562C45.875 29.5707 45.7104 29.9681 45.4174 30.2611C45.1243 30.5541 44.7269 30.7188 44.3125 30.7188H27.125C26.9178 30.7188 26.7191 30.8011 26.5726 30.9476C26.4261 31.0941 26.3438 31.2928 26.3438 31.5C26.3438 31.7072 26.4261 31.9059 26.5726 32.0524C26.7191 32.1989 26.9178 32.2812 27.125 32.2812H44.3125C45.1413 32.2812 45.9362 31.952 46.5222 31.366C47.1083 30.7799 47.4375 29.9851 47.4375 29.1562C47.4375 28.3274 47.1083 27.5326 46.5222 26.9465C45.9362 26.3605 45.1413 26.0313 44.3125 26.0312Z" fill="#85B6FF"/>
<defs>
<filter id="filter0_d_236_42" x="18" y="1" width="45.5" height="45.5" filterUnits="userSpaceOnUse" color-interpolation-filters="sRGB">
<feFlood flood-opacity="0" result="BackgroundImageFix"/>
<feColorMatrix in="SourceAlpha" type="matrix" values="0 0 0 0 0 0 0 0 0 0 0 0 0 0 0 0 0 0 127 0" result="hardAlpha"/>
<feOffset dy="4"/>
<feGaussianBlur stdDeviation="2"/>
<feComposite in2="hardAlpha" operator="out"/>
<feColorMatrix type="matrix" values="0 0 0 0 0 0 0 0 0 0 0 0 0 0 0 0 0 0 0.25 0"/>
<feBlend mode="normal" in2="BackgroundImageFix" result="effect1_dropShadow_236_42"/>
<feBlend mode="normal" in="SourceGraphic" in2="effect1_dropShadow_236_42" result="shape"/>
</filter>
<filter id="filter1_d_236_42" x="0" y="15.3335" width="48" height="36.3335" filterUnits="userSpaceOnUse" color-interpolation-filters="sRGB">
<feFlood flood-opacity="0" result="BackgroundImageFix"/>
<feColorMatrix in="SourceAlpha" type="matrix" values="0 0 0 0 0 0 0 0 0 0 0 0 0 0 0 0 0 0 127 0" result="hardAlpha"/>
<feOffset dy="4"/>
<feGaussianBlur stdDeviation="2"/>
<feComposite in2="hardAlpha" operator="out"/>
<feColorMatrix type="matrix" values="0 0 0 0 0 0 0 0 0 0 0 0 0 0 0 0 0 0 0.25 0"/>
<feBlend mode="normal" in2="BackgroundImageFix" result="effect1_dropShadow_236_42"/>
<feBlend mode="normal" in="SourceGraphic" in2="effect1_dropShadow_236_42" result="shape"/>
</filter>
<clipPath id="clip0_236_42">
<rect width="40" height="40" fill="white" transform="translate(21)"/>
</clipPath>
</defs>
</svg>
